<?xml version="1.0" encoding="UTF-8" standalone="no"?>
<!-- Created with Inkscape (http://www.inkscape.org/) -->

<svg
   xmlns:dc="http://purl.org/dc/elements/1.1/"
   xmlns:cc="http://creativecommons.org/ns#"
   xmlns:rdf="http://www.w3.org/1999/02/22-rdf-syntax-ns#"
   xmlns:svg="http://www.w3.org/2000/svg"
   xmlns="http://www.w3.org/2000/svg"
   xmlns:sodipodi="http://sodipodi.sourceforge.net/DTD/sodipodi-0.dtd"
   xmlns:inkscape="http://www.inkscape.org/namespaces/inkscape"
   width="210mm"
   height="297mm"
   id="svg2"
   version="1.1"
   inkscape:version="0.91 r13725"
   sodipodi:docname="Logo.svg">
  <defs
     id="defs4" />
  <sodipodi:namedview
     id="base"
     pagecolor="#ffffff"
     bordercolor="#666666"
     borderopacity="1.0"
     inkscape:pageopacity="0.0"
     inkscape:pageshadow="2"
     inkscape:zoom="0.13830567"
     inkscape:cx="1485.6695"
     inkscape:cy="798.25509"
     inkscape:document-units="px"
     inkscape:current-layer="layer1"
     showgrid="false"
     units="mm"
     height="83cm"
     inkscape:window-width="1366"
     inkscape:window-height="692"
     inkscape:window-x="0"
     inkscape:window-y="24"
     inkscape:window-maximized="1" />
  <metadata
     id="metadata7">
    <rdf:RDF>
      <cc:Work
         rdf:about="">
        <dc:format>image/svg+xml</dc:format>
        <dc:type
           rdf:resource="http://purl.org/dc/dcmitype/StillImage" />
        <dc:title></dc:title>
      </cc:Work>
    </rdf:RDF>
  </metadata>
  <g
     inkscape:label="Capa 1"
     inkscape:groupmode="layer"
     id="layer1"
     transform="translate(0,0.00146654)">
    <rect
       style="fill:none;stroke:none"
       id="rect3975"
       width="691.47137"
       height="793.91156"
       x="30.790592"
       y="127.9351" />
    <ellipse
       style="fill:#d40000;fill-opacity:1;fill-rule:nonzero;stroke:none"
       id="path3850"
       cx="376.52612"
       cy="376.08615"
       rx="296.13235"
       ry="272.55988" />
    <g
       id="g3852"
       style="stroke:#ffffff"
       transform="matrix(0.47039383,-0.00257377,0.00260781,0.47661537,-42.622495,398.7865)">
      <path
         sodipodi:nodetypes="ccccccccccccc"
         transform="translate(0,-1569.6863)"
         inkscape:connector-curvature="0"
         id="path3820"
         d="m 548.20979,1419.3595 156.87669,-177.1808 412.14222,-6.0609 66.6701,36.3655 86.8731,119.198 -6.0609,94.9544 -24.2437,111.1167 -34.3452,74.7513 -88.8934,52.528 -307.08636,62.6294 -150.31069,-46.669 -100.20714,-118.996 z"
         style="fill:#ffffff;stroke:#ffffff;stroke-width:1px;stroke-linecap:butt;stroke-linejoin:miter;stroke-opacity:1" />
      <path
         sodipodi:nodetypes="cccccccccccccccccccccccccccc"
         transform="translate(0,-1569.6863)"
         inkscape:connector-curvature="0"
         id="path3822"
         d="m 278.8021,1306.8285 185.66604,202.4345 -41.21422,34.5473 4.84873,4.7478 110.6117,-87.9844 6.76802,159.4021 -80.8122,-4.0406 24.24366,40.4061 -26.26396,32.3249 -119.198,38.3858 -8.08123,-34.3452 24.24367,-6.0609 -6.06092,-30.3046 12.12183,-12.1218 -18.18274,-14.1422 14.14213,-14.1421 -42.42641,-14.1422 -6.06091,-18.1827 -66.67007,-4.0406 0,-26.264 58.58885,14.1422 -6.06092,-34.3452 32.32488,-16.1625 -54.54823,-36.3655 -14.14214,-135.3604 36.36549,36.3655 -36.36549,-56.5685 z"
         style="fill:#ffffff;stroke:#ffffff;stroke-width:1px;stroke-linecap:butt;stroke-linejoin:miter;stroke-opacity:1" />
      <path
         sodipodi:nodetypes="cccccccc"
         transform="translate(0,-1569.6863)"
         inkscape:connector-curvature="0"
         id="path3824"
         d="m 474.7717,1503.8083 60.60915,-49.4975 -18.18275,-28.2843 18.18275,-42.4264 92.93403,-117.1777 -191.92898,82.8325 -10.10153,107.0762 z"
         style="fill:#ffffff;stroke:#ffffff;stroke-width:1px;stroke-linecap:butt;stroke-linejoin:miter;stroke-opacity:1" />
      <path
         sodipodi:nodetypes="ccccccc"
         transform="translate(0,-1569.6863)"
         inkscape:connector-curvature="0"
         id="path3828"
         d="m 471,1690.5471 26,-34 -21,-34 75.65685,6 78.34315,96 -49,4.5 z"
         style="fill:#ffffff;stroke:#ffffff;stroke-width:1px;stroke-linecap:butt;stroke-linejoin:miter;stroke-opacity:1" />
      <path
         transform="translate(0,-1569.6863)"
         inkscape:connector-curvature="0"
         id="path3830"
         d="m 732,1772.5471 22,81 27,9.5 -34,-88 z"
         style="fill:#ffffff;stroke:#ffffff;stroke-width:1px;stroke-linecap:butt;stroke-linejoin:miter;stroke-opacity:1" />
      <path
         transform="translate(0,-1569.6863)"
         inkscape:connector-curvature="0"
         id="path3832"
         d="m 825,1867.5471 -53,-88 19,7 52.5,79 z"
         style="fill:#ffffff;stroke:#ffffff;stroke-width:1px;stroke-linecap:butt;stroke-linejoin:miter;stroke-opacity:1" />
      <path
         transform="translate(0,-1569.6863)"
         inkscape:connector-curvature="0"
         id="path3834"
         d="m 1014.5,1828.0471 17.5,-81 19,-4 -14.5,80 z"
         style="fill:#ffffff;stroke:#ffffff;stroke-width:1px;stroke-linecap:butt;stroke-linejoin:miter;stroke-opacity:1" />
      <path
         transform="translate(0,-1569.6863)"
         inkscape:connector-curvature="0"
         id="path3836"
         d="m 1084.5,1809.0471 13,-77 17.5,-4 -14,80.5 z"
         style="fill:#ffffff;stroke:#ffffff;stroke-width:1px;stroke-linecap:butt;stroke-linejoin:miter;stroke-opacity:1" />
      <path
         sodipodi:nodetypes="ccccc"
         transform="translate(0,-1569.6863)"
         inkscape:connector-curvature="0"
         id="path3838"
         d="m 683,1850.5471 -2.5,51.5 116.5,-26.5 c -11.46623,-8.4779 -29.22334,-15.9072 -52,-22.5 -37.9881,-5.6448 -57.95002,-6.2824 -62,-2.5 z"
         style="fill:#ffffff;stroke:#ffffff;stroke-width:1px;stroke-linecap:butt;stroke-linejoin:miter;stroke-opacity:1" />
      <path
         sodipodi:nodetypes="ccccc"
         transform="translate(0,-1569.6863)"
         inkscape:connector-curvature="0"
         id="path3840"
         d="m 675,1865.5471 -6,112 c -27.13876,2.868 -38.39961,1.7666 -43,-1 l -23.5,-103 c 21.30095,-11.2638 47.7466,-7.0935 72.5,-8 z"
         style="fill:#ffffff;stroke:#ffffff;stroke-width:1px;stroke-linecap:butt;stroke-linejoin:miter;stroke-opacity:1" />
      <path
         sodipodi:nodetypes="cccc"
         transform="translate(0,-1569.6863)"
         inkscape:connector-curvature="0"
         id="path3842"
         d="m 559,1909.0471 7.5,34 c -14.18598,1.2574 -51.29763,1.8699 -52.5,-13 -0.53459,-10.8737 15.32234,-14 45,-21 z"
         style="fill:#ffffff;stroke:#ffffff;stroke-width:1px;stroke-linecap:butt;stroke-linejoin:miter;stroke-opacity:1" />
      <path
         sodipodi:nodetypes="ccc"
         transform="translate(0,-1569.6863)"
         inkscape:connector-curvature="0"
         id="path3844"
         d="m 545.88643,1762.9124 c 28.23247,-14.964 100.77123,301.8864 83.4386,307.5914 -37.6868,9.4406 -94.99685,-305.0836 -83.4386,-307.5914 z"
         style="fill:#ffffff;stroke:#ffffff;stroke-width:1px;stroke-linecap:butt;stroke-linejoin:miter;stroke-opacity:1" />
      <path
         sodipodi:nodetypes="cccccccc"
         transform="translate(0,-1569.6863)"
         inkscape:connector-curvature="0"
         id="path3846"
         d="m 680.23672,1908.5764 497.09608,-112.43 -11.3137,76.3675 -57.9828,103.9447 -45.9619,44.5478 c -148.75857,6.6119 -117.39247,-28.0453 -313.95543,26.87 -28.61661,-18.8264 -72.68908,-24.0152 -72.12489,-68.5893 z"
         style="fill:#ffffff;stroke:#ffffff;stroke-width:1px;stroke-linecap:butt;stroke-linejoin:miter;stroke-opacity:1" />
      <path
         sodipodi:nodetypes="cccccccccc"
         transform="translate(0,-1569.6863)"
         inkscape:connector-curvature="0"
         id="path3848"
         d="m 1204.2028,1278.5442 77.7818,110.3087 -4.9498,94.0452 -27.5771,106.066 116.6726,-106.7731 2.1213,55.8615 c 45.2835,-67.02 111.1222,-128.1461 168.2914,-186.6763 l -219.2031,-77.7817 38.1838,52.3259 z"
         style="fill:#ffffff;stroke:#ffffff;stroke-width:1px;stroke-linecap:butt;stroke-linejoin:miter;stroke-opacity:1" />
    </g>
    <text
       xml:space="preserve"
       style="font-style:normal;font-variant:normal;font-weight:normal;font-stretch:normal;font-size:22.22431374px;line-height:125%;font-family:Flipbash;-inkscape-font-specification:Flipbash;letter-spacing:0px;word-spacing:0px;fill:#d40000;fill-opacity:1;stroke:none"
       x="56.400734"
       y="783.92041"
       id="text3946"
       sodipodi:linespacing="125%"><tspan
         sodipodi:role="line"
         id="tspan3948"
         x="56.400734"
         y="783.92041"
         style="font-size:111.12156677px;fill:#d40000">AZEROTH</tspan></text>
    <text
       xml:space="preserve"
       style="font-style:normal;font-variant:normal;font-weight:normal;font-stretch:normal;font-size:22.22431374px;line-height:125%;font-family:Flipbash;-inkscape-font-specification:Flipbash;letter-spacing:0px;word-spacing:0px;fill:#d40000;fill-opacity:1;stroke:none"
       x="143.05144"
       y="871.97778"
       id="text3946-5"
       sodipodi:linespacing="125%"><tspan
         sodipodi:role="line"
         id="tspan3948-1"
         x="143.05144"
         y="871.97778"
         style="font-size:72.22901917px;fill:#d40000"><tspan
   style="font-size:72.22901917px;fill:#000000"
   id="tspan3971">Comic</tspan>Store</tspan></text>
  </g>
</svg>
