<?xml version="1.0" encoding="UTF-8" standalone="no"?>
<svg
   xmlns:dc="http://purl.org/dc/elements/1.1/"
   xmlns:cc="http://creativecommons.org/ns#"
   xmlns:rdf="http://www.w3.org/1999/02/22-rdf-syntax-ns#"
   xmlns:svg="http://www.w3.org/2000/svg"
   xmlns="http://www.w3.org/2000/svg"
   xmlns:sodipodi="http://sodipodi.sourceforge.net/DTD/sodipodi-0.dtd"
   xmlns:inkscape="http://www.inkscape.org/namespaces/inkscape"
   id="Layer_1"
   style="enable-background:new 0 0 64 64;"
   version="1.1"
   viewBox="0 0 64 64"
   xml:space="preserve"
   sodipodi:docname="maximize_arrow_up2_1814087.svg"
   inkscape:version="0.92.1 r15371"
   inkscape:export-filename="C:\Users\Samantha\source\repos\VentasFacturacion\img\Icon-Maximize00.png"
   inkscape:export-xdpi="384"
   inkscape:export-ydpi="384"><metadata
     id="metadata13"><rdf:RDF><cc:Work
         rdf:about=""><dc:format>image/svg+xml</dc:format><dc:type
           rdf:resource="http://purl.org/dc/dcmitype/StillImage" /><dc:title /></cc:Work></rdf:RDF></metadata><defs
     id="defs11" /><sodipodi:namedview
     pagecolor="#ffffff"
     bordercolor="#666666"
     borderopacity="1"
     objecttolerance="10"
     gridtolerance="10"
     guidetolerance="10"
     inkscape:pageopacity="0"
     inkscape:pageshadow="2"
     inkscape:window-width="1366"
     inkscape:window-height="706"
     id="namedview9"
     showgrid="false"
     showguides="true"
     inkscape:zoom="5.2149125"
     inkscape:cx="-15.172142"
     inkscape:cy="33.18739"
     inkscape:window-x="-8"
     inkscape:window-y="-8"
     inkscape:window-maximized="1"
     inkscape:current-layer="Layer_1" /><style
     type="text/css"
     id="style2">
	.st0{fill:#134563;}
</style><g
     id="g6"
     transform="translate(0.63825576,1.0965063)"
     style="fill:#ffffff"
     inkscape:export-xdpi="1004.18"
     inkscape:export-ydpi="1004.18"><g
       id="Icon-Chevron-Left"
       transform="translate(237,335)"
       style="fill:#ffffff"><polyline
         class="st0"
         id="Fill-35"
         points="-191.3,-296.9 -193.3,-294.9 -205,-306.6 -216.7,-294.9 -218.7,-296.9 -205,-310.6      -191.3,-296.9    "
         style="fill:#ffffff" /></g></g><g
     transform="matrix(0.93982497,0,0,0.93982497,394.94237,263.02144)"
     id="Icon-Close-O"
     style="fill:#ffffff"
     inkscape:export-xdpi="1004.18"
     inkscape:export-ydpi="1004.18"><path
       style="fill:#ffffff"
       id="Fill-52"
       d="m -385.50169,-220.48054 c -13.2,0 -23.9,-10.7 -23.9,-23.9 0,-13.2 10.7,-23.9 23.9,-23.9 13.2,0 23.9,10.7 23.9,23.9 0,13.1 -10.7,23.9 -23.9,23.9 z m 0,-45.3 c -11.7,0 -21.3,9.6 -21.3,21.3 0,11.7 9.6,21.3 21.3,21.3 11.7,0 21.3,-9.6 21.3,-21.3 0,-11.7 -9.6,-21.3 -21.3,-21.3 z"
       class="st0"
       inkscape:connector-curvature="0" /></g></svg>